<svg width="24" height="25" viewBox="0 0 24 25" fill="none" xmlns="http://www.w3.org/2000/svg">
<path d="M2.75 3.73633L4.83 4.08889L5.793 15.325C5.87 16.2426 6.653 16.9468 7.593 16.9439H18.502C19.399 16.9458 20.16 16.2994 20.287 15.4298L21.236 9.0072C21.342 8.28933 20.833 7.62337 20.101 7.51956C20.037 7.51075 5.164 7.50585 5.164 7.50585" stroke="black" stroke-width="1.625" stroke-linecap="round" stroke-linejoin="round"/>
<path d="M14.125 11.1264H16.898" stroke="black" stroke-width="1.625" stroke-linecap="round" stroke-linejoin="round"/>
<path fill-rule="evenodd" clip-rule="evenodd" d="M7.15411 20.3398C7.45511 20.3398 7.69811 20.5788 7.69811 20.8726C7.69811 21.1674 7.45511 21.4064 7.15411 21.4064C6.85311 21.4064 6.61011 21.1674 6.61011 20.8726C6.61011 20.5788 6.85311 20.3398 7.15411 20.3398Z" fill="black" stroke="black" stroke-width="1.625" stroke-linecap="round" stroke-linejoin="round"/>
<path fill-rule="evenodd" clip-rule="evenodd" d="M18.4344 20.3398C18.7354 20.3398 18.9794 20.5788 18.9794 20.8726C18.9794 21.1674 18.7354 21.4064 18.4344 21.4064C18.1334 21.4064 17.8904 21.1674 17.8904 20.8726C17.8904 20.5788 18.1334 20.3398 18.4344 20.3398Z" fill="black" stroke="black" stroke-width="1.625" stroke-linecap="round" stroke-linejoin="round"/>
</svg>
