<?xml version="1.0" encoding="UTF-8"?>
<svg xmlns="http://www.w3.org/2000/svg" xmlns:xlink="http://www.w3.org/1999/xlink" width="25px" height="25px" viewBox="0 0 25 25" version="1.1">
<defs>
<clipPath id="clip1">
  <path d="M 4.167969 -401.042969 L 353.125 -401.042969 C 364.632812 -401.042969 373.957031 -391.714844 373.957031 -380.207031 L 373.957031 421.875 C 373.957031 433.382812 364.632812 442.707031 353.125 442.707031 L 4.167969 442.707031 C -7.339844 442.707031 -16.667969 433.382812 -16.667969 421.875 L -16.667969 -380.207031 C -16.667969 -391.714844 -7.339844 -401.042969 4.167969 -401.042969 Z M 4.167969 -401.042969 "/>
</clipPath>
<clipPath id="clip2">
  <path d="M 11 11 L 14 11 L 14 25 L 11 25 Z M 11 11 "/>
</clipPath>
<clipPath id="clip3">
  <path d="M 4.167969 -401.042969 L 353.125 -401.042969 C 364.632812 -401.042969 373.957031 -391.714844 373.957031 -380.207031 L 373.957031 421.875 C 373.957031 433.382812 364.632812 442.707031 353.125 442.707031 L 4.167969 442.707031 C -7.339844 442.707031 -16.667969 433.382812 -16.667969 421.875 L -16.667969 -380.207031 C -16.667969 -391.714844 -7.339844 -401.042969 4.167969 -401.042969 Z M 4.167969 -401.042969 "/>
</clipPath>
<clipPath id="clip4">
  <path d="M 4.167969 -401.042969 L 353.125 -401.042969 C 364.632812 -401.042969 373.957031 -391.714844 373.957031 -380.207031 L 373.957031 421.875 C 373.957031 433.382812 364.632812 442.707031 353.125 442.707031 L 4.167969 442.707031 C -7.339844 442.707031 -16.667969 433.382812 -16.667969 421.875 L -16.667969 -380.207031 C -16.667969 -391.714844 -7.339844 -401.042969 4.167969 -401.042969 Z M 4.167969 -401.042969 "/>
</clipPath>
<clipPath id="clip5">
  <path d="M 7 8 L 18 8 L 18 17 L 7 17 Z M 7 8 "/>
</clipPath>
<clipPath id="clip6">
  <path d="M 4.167969 -401.042969 L 353.125 -401.042969 C 364.632812 -401.042969 373.957031 -391.714844 373.957031 -380.207031 L 373.957031 421.875 C 373.957031 433.382812 364.632812 442.707031 353.125 442.707031 L 4.167969 442.707031 C -7.339844 442.707031 -16.667969 433.382812 -16.667969 421.875 L -16.667969 -380.207031 C -16.667969 -391.714844 -7.339844 -401.042969 4.167969 -401.042969 Z M 4.167969 -401.042969 "/>
</clipPath>
</defs>
<g id="surface1">
<rect x="0" y="0" width="25" height="25" style="fill:rgb(11.764706%,11.764706%,11.764706%);fill-opacity:1;stroke:none;"/>
<g clip-path="url(#clip1)" clip-rule="nonzero">
<path style=" stroke:none;fill-rule:nonzero;fill:rgb(100%,100%,100%);fill-opacity:1;" d="M 4.167969 -401.042969 L 353.125 -401.042969 C 364.632812 -401.042969 373.957031 -391.714844 373.957031 -380.207031 L 373.957031 421.875 C 373.957031 433.382812 364.632812 442.707031 353.125 442.707031 L 4.167969 442.707031 C -7.339844 442.707031 -16.667969 433.382812 -16.667969 421.875 L -16.667969 -380.207031 C -16.667969 -391.714844 -7.339844 -401.042969 4.167969 -401.042969 Z M 4.167969 -401.042969 "/>
</g>
<g clip-path="url(#clip2)" clip-rule="nonzero">
<g clip-path="url(#clip3)" clip-rule="nonzero">
<path style="fill:none;stroke-width:1;stroke-linecap:round;stroke-linejoin:miter;stroke:rgb(42.352942%,45.882353%,49.019608%);stroke-opacity:1;stroke-dasharray:4,4;stroke-miterlimit:4;" d="M 12 12 L 12 292.00125 " transform="matrix(1.041667,0,0,1.041667,0,0)"/>
</g>
</g>
<g clip-path="url(#clip4)" clip-rule="nonzero">
<path style="fill-rule:nonzero;fill:rgb(8.235294%,64.705884%,10.588235%);fill-opacity:1;stroke-width:1;stroke-linecap:butt;stroke-linejoin:miter;stroke:rgb(8.235294%,64.705884%,10.588235%);stroke-opacity:1;stroke-miterlimit:4;" d="M 23.50125 12 C 23.50125 5.6475 18.3525 0.49875 12 0.49875 C 5.6475 0.49875 0.49875 5.6475 0.49875 12 C 0.49875 18.3525 5.6475 23.50125 12 23.50125 C 18.3525 23.50125 23.50125 18.3525 23.50125 12 Z M 23.50125 12 " transform="matrix(1.041667,0,0,1.041667,0,0)"/>
</g>
<g clip-path="url(#clip5)" clip-rule="nonzero">
<g clip-path="url(#clip6)" clip-rule="nonzero">
<path style="fill:none;stroke-width:1.16667;stroke-linecap:round;stroke-linejoin:round;stroke:rgb(100%,100%,100%);stroke-opacity:1;stroke-miterlimit:4;" d="M 16.665 8.50125 L 10.24875 14.9175 L 7.335 12 " transform="matrix(1.041667,0,0,1.041667,0,0)"/>
</g>
</g>
</g>
</svg>
