<svg width="40" height="40" viewBox="0 0 40 40" fill="none" xmlns="http://www.w3.org/2000/svg">
<rect width="40" height="40" rx="20" fill="#076E92"/>
<path d="M20 9.8584C19.2044 9.8584 18.4413 10.1745 17.8787 10.7371C17.3161 11.2997 17 12.0627 17 12.8584V19.8584C17 20.654 17.3161 21.4171 17.8787 21.9797C18.4413 22.5423 19.2044 22.8584 20 22.8584C20.7956 22.8584 21.5587 22.5423 22.1213 21.9797C22.6839 21.4171 23 20.654 23 19.8584V12.8584C23 12.0627 22.6839 11.2997 22.1213 10.7371C21.5587 10.1745 20.7956 9.8584 20 9.8584Z" fill="white" stroke="white" stroke-width="1.2549" stroke-linecap="round" stroke-linejoin="round"/>
<path d="M26.9961 17.8574V19.8574C26.9961 21.7139 26.2586 23.4944 24.9458 24.8072C23.6331 26.1199 21.8526 26.8574 19.9961 26.8574C18.1396 26.8574 16.3591 26.1199 15.0463 24.8072C13.7336 23.4944 12.9961 21.7139 12.9961 19.8574V17.8574" stroke="white" stroke-width="1.2549" stroke-linecap="round" stroke-linejoin="round"/>
<path d="M20 26.8574V29.8574" stroke="white" stroke-width="1.2549" stroke-linecap="round" stroke-linejoin="round"/>
</svg>
