<svg width="17" height="18" viewBox="0 0 17 18" fill="none" xmlns="http://www.w3.org/2000/svg">
<path d="M8.5 1.31641C7.93641 1.31641 7.39591 1.54029 6.9974 1.9388C6.59888 2.33732 6.375 2.87782 6.375 3.44141V8.39974C6.375 8.96332 6.59888 9.50382 6.9974 9.90234C7.39591 10.3009 7.93641 10.5247 8.5 10.5247C9.06358 10.5247 9.60409 10.3009 10.0026 9.90234C10.4011 9.50382 10.625 8.96332 10.625 8.39974V3.44141C10.625 2.87782 10.4011 2.33732 10.0026 1.9388C9.60409 1.54029 9.06358 1.31641 8.5 1.31641Z" stroke="#212529" stroke-linecap="round" stroke-linejoin="round"/>
<path d="M13.4557 6.98242V8.39909C13.4557 9.71412 12.9333 10.9753 12.0035 11.9052C11.0736 12.835 9.81243 13.3574 8.4974 13.3574C7.18236 13.3574 5.92119 12.835 4.99132 11.9052C4.06146 10.9753 3.53906 9.71412 3.53906 8.39909V6.98242" stroke="#212529" stroke-linecap="round" stroke-linejoin="round"/>
<path d="M8.5 13.3574V15.4824" stroke="#212529" stroke-linecap="round" stroke-linejoin="round"/>
</svg>
