<svg width="20" height="20" viewBox="0 0 20 20" fill="none" xmlns="http://www.w3.org/2000/svg">
<path d="M11.6667 1.66602H7.33337C5.93324 1.66602 5.23318 1.66602 4.6984 1.9385C4.22799 2.17818 3.84554 2.56063 3.60586 3.03104C3.33337 3.56582 3.33337 4.26588 3.33337 5.66602V14.3327C3.33337 15.7328 3.33337 16.4329 3.60586 16.9677C3.84554 17.4381 4.22799 17.8205 4.6984 18.0602C5.23318 18.3327 5.93324 18.3327 7.33337 18.3327H12.6667C14.0668 18.3327 14.7669 18.3327 15.3017 18.0602C15.7721 17.8205 16.1545 17.4381 16.3942 16.9677C16.6667 16.4329 16.6667 15.7328 16.6667 14.3327V6.66602M11.6667 1.66602L16.6667 6.66602M11.6667 1.66602V6.66602H16.6667M11.4584 11.666V10.2077C11.4584 9.40227 10.8055 8.74935 10 8.74935C9.19463 8.74935 8.54171 9.40227 8.54171 10.2077V11.666M8.41671 14.9993H11.5834C12.0501 14.9993 12.2834 14.9993 12.4617 14.9085C12.6185 14.8286 12.746 14.7011 12.8259 14.5443C12.9167 14.3661 12.9167 14.1327 12.9167 13.666V12.9993C12.9167 12.5326 12.9167 12.2993 12.8259 12.121C12.746 11.9642 12.6185 11.8367 12.4617 11.7568C12.2834 11.666 12.0501 11.666 11.5834 11.666H8.41671C7.95 11.666 7.71664 11.666 7.53838 11.7568C7.38158 11.8367 7.2541 11.9642 7.1742 12.121C7.08337 12.2993 7.08337 12.5326 7.08337 12.9993V13.666C7.08337 14.1327 7.08337 14.3661 7.1742 14.5443C7.2541 14.7011 7.38158 14.8286 7.53838 14.9085C7.71664 14.9993 7.95 14.9993 8.41671 14.9993Z" stroke="#076E92" stroke-width="1.25" stroke-linecap="round" stroke-linejoin="round"/>
</svg>
