<svg width="20" height="20" viewBox="0 0 20 20" fill="none" xmlns="http://www.w3.org/2000/svg">
<path d="M11.6667 1.89062V5.33274C11.6667 5.79945 11.6667 6.03281 11.7575 6.21107C11.8374 6.36787 11.9649 6.49535 12.1217 6.57525C12.3 6.66607 12.5333 6.66607 13 6.66607H16.4422M7.50004 13.3327L9.16671 14.9993L12.9167 11.2493M11.6667 1.66602H7.33337C5.93324 1.66602 5.23318 1.66602 4.6984 1.9385C4.22799 2.17818 3.84554 2.56063 3.60586 3.03104C3.33337 3.56582 3.33337 4.26588 3.33337 5.66602V14.3327C3.33337 15.7328 3.33337 16.4329 3.60586 16.9677C3.84554 17.4381 4.22799 17.8205 4.6984 18.0602C5.23318 18.3327 5.93324 18.3327 7.33337 18.3327H12.6667C14.0668 18.3327 14.7669 18.3327 15.3017 18.0602C15.7721 17.8205 16.1545 17.4381 16.3942 16.9677C16.6667 16.4329 16.6667 15.7328 16.6667 14.3327V6.66602L11.6667 1.66602Z" stroke="#076E92" stroke-width="1.25" stroke-linecap="round" stroke-linejoin="round"/>
</svg>
