<svg width="44" height="27" viewBox="0 0 44 27" fill="none" xmlns="http://www.w3.org/2000/svg">
<path d="M31.4586 18.5H29.5583V13H44.0013V18.5H39.9396" fill="#F8B84E"/>
<path d="M29.5585 4.75H37.4372L43.9918 13.0274L29.5488 13L29.5585 4.75Z" fill="#4BBFEB"/>
<path d="M31.625 14.375H33.0192" stroke="#2B4255" stroke-linecap="round" stroke-linejoin="round"/>
<path fill-rule="evenodd" clip-rule="evenodd" d="M43.9999 17.1251V15.7501H41.9484C41.0175 15.7364 41.0175 17.1389 41.9484 17.1251H43.9999Z" fill="#F17F53"/>
<path d="M29.5349 4.74968L29.5528 12.9748C29.5528 13.1572 29.6252 13.332 29.7542 13.4609C29.8831 13.5899 30.058 13.6623 30.2403 13.6623L43.3097 13.6857C43.4418 13.6858 43.5711 13.6479 43.6822 13.5764C43.7933 13.5049 43.8815 13.4031 43.9362 13.2828C43.9908 13.1626 44.0097 13.0292 43.9906 12.8985C43.9714 12.7678 43.915 12.6453 43.828 12.5458L37.8674 4.95714C37.7382 4.80726 37.5512 4.75928 37.3518 4.7579C34.5743 4.75928 29.5349 4.74414 29.5349 4.74414V4.74968ZM30.9374 6.09715H37.041L41.7917 12.308L30.9292 12.2887L30.9374 6.09715Z" fill="#F8B84E"/>
<path fill-rule="evenodd" clip-rule="evenodd" d="M34.3655 5.43555V13.6855H35.7405V5.43555H34.3655Z" fill="#F8B84E"/>
<path d="M0 7.66902V0.625H29.5625V18.5H0V11.3912" fill="#F05542"/>
<path d="M3.894 21.25H0V18.5H44V21.25H16.2154H3.894Z" fill="#34485C"/>
<path d="M34.375 17.125C33.1563 17.1259 31.9725 17.5315 31.0094 18.2781C30.0463 19.0247 29.3584 20.0701 29.0537 21.25H39.6948C39.3902 20.0703 38.7025 19.025 37.7397 18.2784C36.7768 17.5319 35.5933 17.1262 34.375 17.125Z" fill="#576D7E"/>
<path d="M11 25.375C11.7594 25.375 12.375 24.7594 12.375 24C12.375 23.2406 11.7594 22.625 11 22.625C10.2406 22.625 9.625 23.2406 9.625 24C9.625 24.7594 10.2406 25.375 11 25.375Z" stroke="black" stroke-linecap="round" stroke-linejoin="round"/>
<path d="M34.375 26.75C36.6532 26.75 38.5 24.9032 38.5 22.625C38.5 20.3468 36.6532 18.5 34.375 18.5C32.0968 18.5 30.25 20.3468 30.25 22.625C30.25 24.9032 32.0968 26.75 34.375 26.75Z" fill="#2B4255"/>
<path d="M34.375 24C35.1344 24 35.75 23.3844 35.75 22.625C35.75 21.8656 35.1344 21.25 34.375 21.25C33.6156 21.25 33 21.8656 33 22.625C33 23.3844 33.6156 24 34.375 24Z" fill="#E9EDED"/>
<path d="M11 17.125C9.78134 17.1259 8.59752 17.5315 7.63439 18.2781C6.67126 19.0247 5.98337 20.0701 5.67871 21.25H16.3198C16.0152 20.0703 15.3275 19.025 14.3647 18.2784C13.4018 17.5319 12.2183 17.1262 11 17.125Z" fill="#576D7E"/>
<path d="M11 26.75C13.2782 26.75 15.125 24.9032 15.125 22.625C15.125 20.3468 13.2782 18.5 11 18.5C8.72183 18.5 6.875 20.3468 6.875 22.625C6.875 24.9032 8.72183 26.75 11 26.75Z" fill="#2B4255"/>
<path d="M11 24C11.7594 24 12.375 23.3844 12.375 22.625C12.375 21.8656 11.7594 21.25 11 21.25C10.2406 21.25 9.625 21.8656 9.625 22.625C9.625 23.3844 10.2406 24 11 24Z" fill="#E9EDED"/>
<path fill-rule="evenodd" clip-rule="evenodd" d="M0 17.1251V15.7501H2.03225C2.96175 15.7364 2.96175 17.1389 2.03225 17.1251H0Z" fill="#F17F53"/>
</svg>
